<svg height="128" width="128" xmlns="http://www.w3.org/2000/svg"><rect x="2" y="2" width="124" height="124" rx="14" fill="#363d52" stroke="#212532" stroke-width="4"/><g transform="scale(.101) translate(122 122)"><g fill="#fff"><path d="m105 673v33q407 354 814 0v-33z"/><path d="m105 673v33q407 354 814 0v-33z" fill="#478cbf"/><path d="m105 673v33q407 354 814 0v-33z" fill="#478cbf"/><path d="m105 673v33q407 354 814 0v-33z" fill="#478cbf"/><ellipse cx="512" cy="440" fill="#fff" rx="42" ry="38"/><ellipse cx="512" cy="440" fill="#478cbf" rx="12" ry="12"/><path fill="#478cbf" d="m473 501q-23 0-40 17t-17 40v78h192v-78q0-23-17-40t-40-17z"/></g></g></svg>